<svg xmlns="http://www.w3.org/2000/svg" viewBox="0 0 500 500"><g id="freepik--background-complete--inject-17"><rect x="253.49" y="47.64" width="14.2" height="14.2" rx="3.34" transform="translate(13.79 154.71) rotate(-33.91)" style="fill:#f5f5f5"></rect><rect x="70.04" y="147.36" width="14.2" height="14.2" rx="3.34" transform="translate(-73.06 69.32) rotate(-33.91)" style="fill:#f5f5f5"></rect><path d="M330.86,81.14l2.22.48,6.24-5.38.93-4.22s3.47.55,1.85,6-.87,4.13-.87,4.13,7.25,1.62,7.73,2.36c.34.53-1,7.48-1.73,11.24a4.18,4.18,0,0,1-3.9,3.43,3.56,3.56,0,0,1-.8-.08c-1.81-.39-10.76-3.84-10.76-3.84l-3.83-.84Z" style="fill:#e0e0e0"></path><polygon points="324.78 78.58 322.96 93.37 326.75 94.2 329.87 80.01 324.78 78.58" style="fill:#e0e0e0"></polygon><path d="M373.82,116.6l2.82,2.9a1.37,1.37,0,0,0,1.2.39l4-.68a1.36,1.36,0,0,1,1.43,2l-1.89,3.57a1.34,1.34,0,0,0,0,1.26l1.88,3.59a1.35,1.35,0,0,1-1.43,2l-4-.69a1.34,1.34,0,0,0-1.2.39l-2.82,2.89a1.35,1.35,0,0,1-2.31-.75l-.58-4a1.35,1.35,0,0,0-.74-1l-3.62-1.79a1.35,1.35,0,0,1,0-2.43l3.63-1.79a1.32,1.32,0,0,0,.74-1l.59-4A1.35,1.35,0,0,1,373.82,116.6Z" style="fill:#ebebeb"></path><path d="M133.3,51.23l2,2.06a1,1,0,0,0,.85.28l2.82-.48a1,1,0,0,1,1,1.39L138.65,57a.94.94,0,0,0,0,.89L140,60.45a1,1,0,0,1-1,1.39l-2.82-.49a1,1,0,0,0-.85.28l-2,2a1,1,0,0,1-1.63-.54l-.41-2.83a1,1,0,0,0-.53-.73l-2.57-1.27a1,1,0,0,1,0-1.72l2.57-1.27a1,1,0,0,0,.53-.72l.41-2.84A1,1,0,0,1,133.3,51.23Z" style="fill:#ebebeb"></path><path d="M66.9,99.59a6.55,6.55,0,1,0-4.59-1.28c-10.08-1.32-12.43,8.81-12.43,8.81l22.9,6.5S76.12,103.65,66.9,99.59Z" style="fill:#e0e0e0"></path><ellipse cx="213.73" cy="475.99" rx="37.14" ry="2.81" style="fill:#e0e0e0"></ellipse></g><g id="freepik--Floor--inject-17"><path d="M471.66,466.11c0,.15-93.61.26-209,.26s-209.07-.11-209.07-.26,93.58-.26,209.07-.26S471.66,466,471.66,466.11Z" style="fill:#263238"></path></g><g id="freepik--Filter--inject-17"><path d="M185.38,312.82s-79-84.61-88.32-95.69c-4-4.82-10.07-17.35-10.84-21.54a14.82,14.82,0,0,1,7.4-15.7c12.48-6.85,43.76-16,121.74-16,65.7,0,95.32,7.59,108.65,14.74a18.1,18.1,0,0,1,9,20.09h0a35.94,35.94,0,0,1-8.59,16.16l-90.5,98-8.09,68.53H197.28Z" style="fill:#455a64"></path><path d="M316.87,185.3a4.46,4.46,0,0,1,.69,7.9c-18.68,12-42.17,15.2-64.59,16.67-50.31,3.29-128.88,1.29-152.21-18.92a2.67,2.67,0,0,1,.86-4.56c8.13-2.82,32.23-12.24,106.81-11.68C273.62,175.2,304.52,180.29,316.87,185.3Z" style="fill:#263238"></path><path d="M235.39,311.87a2.46,2.46,0,0,1-.46.28l-1.35.71a21.76,21.76,0,0,1-2.18,1c-.87.36-1.84.82-3,1.19l-1.76.63c-.61.21-1.27.37-1.94.57-1.33.42-2.8.72-4.33,1.06a61.74,61.74,0,0,1-10.16,1.07,61,61,0,0,1-10.19-.81c-1.54-.3-3-.56-4.36-.95-.68-.18-1.34-.32-2-.52l-1.77-.58c-1.14-.34-2.12-.78-3-1.12a21.47,21.47,0,0,1-2.21-1l-1.37-.68a1.76,1.76,0,0,1-.46-.27,2.94,2.94,0,0,1,.51.18l1.4.59c.61.27,1.35.58,2.24.89s1.87.72,3,1l1.77.54c.61.19,1.27.32,1.94.49,1.34.37,2.81.61,4.34.9a57.59,57.59,0,0,0,20.17-.26c1.53-.33,3-.61,4.31-1,.67-.19,1.33-.35,1.94-.55l1.75-.58c1.13-.35,2.11-.79,3-1.12s1.62-.67,2.22-.95l1.39-.63A2,2,0,0,1,235.39,311.87Z" style="fill:#263238"></path><path d="M324.3,187.85s-.15.14-.47.39l-1.41,1.09-2.32,1.76-3.32,2.18a85.31,85.31,0,0,1-9.6,5.14,102.69,102.69,0,0,1-13.53,5,147.6,147.6,0,0,1-17,3.88c-6.2,1-12.87,1.83-19.9,2.44-14.08,1.17-29.59,2-45.89,1.92-8.15,0-16.11-.23-23.78-.68s-15.07-1-22.08-1.85a364.54,364.54,0,0,1-37-6,67.87,67.87,0,0,1-23.52-9,28,28,0,0,1-5.38-4.29,11,11,0,0,1-1.11-1.41c-.22-.34-.32-.52-.32-.52a19.15,19.15,0,0,0,1.51,1.86,28.93,28.93,0,0,0,5.4,4.19,68.71,68.71,0,0,0,23.5,8.81,372.84,372.84,0,0,0,37,5.91c7,.8,14.39,1.39,22.06,1.82s15.61.66,23.75.67c16.28,0,31.79-.73,45.84-1.88,7-.59,13.69-1.37,19.88-2.39a148.6,148.6,0,0,0,17-3.8,106.43,106.43,0,0,0,13.51-4.89,89.3,89.3,0,0,0,9.61-5.05L320,191l2.34-1.72,1.45-1.05Z" style="fill:#263238"></path><path d="M322.87,216.52l-.54.27-1.61.75-6.2,2.84-4.48,2c-1.66.71-3.5,1.38-5.45,2.15-3.94,1.48-8.34,3.39-13.41,4.92l-7.9,2.58c-1.37.48-2.8.83-4.25,1.22l-4.43,1.18L270,235.7l-2.35.62-2.42.51-10,2.1A288.53,288.53,0,0,1,210,243.59a279.43,279.43,0,0,1-45.39-3.27l-10.07-1.85-2.43-.44c-.8-.17-1.58-.38-2.36-.57l-4.62-1.13-4.45-1.09c-1.46-.37-2.91-.67-4.28-1.13l-7.94-2.45c-5.1-1.43-9.52-3.31-13.47-4.75-2-.76-3.81-1.4-5.47-2.1l-4.49-2L98.78,220l-1.61-.74-.54-.27.56.22,1.63.7,6.25,2.71,4.51,2c1.66.69,3.51,1.32,5.48,2.06,4,1.41,8.37,3.26,13.47,4.67l7.94,2.41c1.37.46,2.82.76,4.27,1.12l4.46,1.07,4.6,1.12c.79.18,1.57.39,2.37.56l2.42.44,10,1.82A283.28,283.28,0,0,0,210,243.07a291.32,291.32,0,0,0,45.19-4.61l10-2.08,2.41-.5,2.35-.62,4.58-1.21,4.44-1.16c1.44-.39,2.88-.73,4.24-1.21l7.9-2.54c5.07-1.5,9.48-3.39,13.42-4.84,2-.76,3.8-1.41,5.46-2.11l4.5-2,6.24-2.74,1.62-.7C322.67,216.59,322.87,216.52,322.87,216.52Z" style="fill:#263238"></path><path d="M201.4,381.35a1.29,1.29,0,0,1-.08-.32c0-.23-.09-.54-.17-.93-.14-.85-.35-2.07-.62-3.65-.53-3.21-1.3-7.85-2.27-13.7-1.9-11.75-4.59-28.32-7.73-47.7l.06.13c-7.45-8.12-15.58-17.06-23.84-26.59-9.31-10.74-17.87-21.24-25.28-31.08-3.71-4.91-7.11-9.68-10.26-14.16s-6-8.69-8.3-12.78a31.89,31.89,0,0,1-4.11-11.85,20.09,20.09,0,0,1,1.16-9.39,14.46,14.46,0,0,1,3.22-5l.66-.62.52-.4c.27-.22.42-.32.42-.32a5,5,0,0,1-.39.36c-.14.11-.31.25-.5.42l-.63.64a14.56,14.56,0,0,0-3.11,5,20,20,0,0,0-1.06,9.27,31.62,31.62,0,0,0,4.14,11.71c2.26,4.05,5.25,8.2,8.34,12.71s6.56,9.22,10.29,14.12c7.42,9.81,16,20.3,25.28,31,8.26,9.53,16.38,18.47,23.81,26.6l.05,0V315c3.07,19.39,5.69,36,7.55,47.73.91,5.85,1.63,10.5,2.13,13.72.23,1.58.42,2.8.54,3.65.06.4.1.72.14.95Z" style="fill:#263238"></path><path d="M308.83,172.38c0,.06-.52,0-1.41.17a6.69,6.69,0,0,0-3.37,1.6,14.32,14.32,0,0,0-3.25,4.59,43.88,43.88,0,0,0-2.41,6.56c-1.4,4.78-2.2,9.24-2.83,12.45-.27,1.53-.5,2.81-.67,3.81a6.75,6.75,0,0,1-.32,1.39,8.27,8.27,0,0,1,.12-1.42c.11-.91.27-2.22.51-3.85a104.41,104.41,0,0,1,2.69-12.52,40.71,40.71,0,0,1,2.48-6.63,14.17,14.17,0,0,1,3.44-4.66,6.57,6.57,0,0,1,3.59-1.52,5.56,5.56,0,0,1,1.06,0C308.7,172.34,308.83,172.36,308.83,172.38Z" style="fill:#263238"></path></g><g id="freepik--Character--inject-17"><path d="M357.59,157.59s-9.49-16.45-14.24-15.51a23.33,23.33,0,0,0-8.93,4.37l12.08,14.2Z" style="fill:#ffbe9d"></path><polygon points="414.96 200.9 378.62 184.59 357.43 152.36 344.39 159.12 369.04 203.05 409.57 218.42 414.96 200.9" style="fill:#9C76DF"></polygon><path d="M337.22,143.12a11.46,11.46,0,1,0-6.88-4.69c-16-7.84-25.55,7.63-25.55,7.63l34.3,23.61S350.23,155,337.22,143.12Z" style="fill:#263238"></path><path d="M364.59,461.16l1-9.07,16.54,1.66-.82,13.33-1.06,0c-4.72-.21-24-1.4-27-2.67C349.83,463,364.59,461.16,364.59,461.16Z" style="fill:#455a64"></path><path d="M381.56,466.71a1.36,1.36,0,0,1-.3,0l-.84,0-3.1-.17c-2.62-.17-6.24-.45-10.22-.84s-7.59-.83-10.19-1.19l-3.07-.43-.84-.14a.9.9,0,0,1-.28-.06l.29,0,.84.1,3.08.37c2.61.31,6.21.73,10.19,1.12s7.59.7,10.21.9l3.09.24.85.07Z" style="fill:#263238"></path><path d="M358.61,464.89a6.37,6.37,0,0,0-.43-1.53,6.71,6.71,0,0,0-.93-1.29,2.33,2.33,0,0,1,1.12,1.2A2.26,2.26,0,0,1,358.61,464.89Z" style="fill:#263238"></path><path d="M363.88,462.85c-.05,0-.26-.29-.47-.71a1.73,1.73,0,0,1-.28-.79c.05,0,.26.29.47.7S363.93,462.82,363.88,462.85Z" style="fill:#263238"></path><path d="M365.33,462.26s-.29-.17-.56-.46-.44-.56-.4-.6.29.17.56.46S365.37,462.22,365.33,462.26Z" style="fill:#263238"></path><path d="M366.36,460.74c0,.06-.4.07-.9,0a2.18,2.18,0,0,1-.87-.18,1.92,1.92,0,0,1,.89,0A2.07,2.07,0,0,1,366.36,460.74Z" style="fill:#263238"></path><path d="M366.77,459.64a1.66,1.66,0,0,1-1,.19,1.72,1.72,0,0,1-1-.24,5.3,5.3,0,0,1,1,0A5.65,5.65,0,0,1,366.77,459.64Z" style="fill:#263238"></path><path d="M363.46,461.31a3.34,3.34,0,0,1-1.1-.12,5.9,5.9,0,0,1-1.13-.37,2.84,2.84,0,0,1-.64-.34.62.62,0,0,1-.24-.37.44.44,0,0,1,.21-.42,2,2,0,0,1,2.42.84,1.74,1.74,0,0,1,.28.76.59.59,0,0,1,0,.3,3.08,3.08,0,0,0-.4-1,2,2,0,0,0-.88-.7,1.7,1.7,0,0,0-1.31,0c-.18.11-.13.32.05.45a3,3,0,0,0,.58.33,8,8,0,0,0,1.1.4C363,461.23,363.46,461.28,363.46,461.31Z" style="fill:#263238"></path><path d="M363.17,461.34a1.09,1.09,0,0,1-.05-.78,1.78,1.78,0,0,1,.37-.76,1.09,1.09,0,0,1,1-.47.45.45,0,0,1,.29.54,1.3,1.3,0,0,1-.24.47,3.43,3.43,0,0,1-.58.61,1.64,1.64,0,0,1-.67.38s.24-.18.57-.49a4.22,4.22,0,0,0,.53-.61c.17-.22.31-.62,0-.7s-.57.19-.76.39a1.74,1.74,0,0,0-.38.68A3.16,3.16,0,0,0,363.17,461.34Z" style="fill:#263238"></path><path d="M381.68,462s-.49-.1-1.26-.08a5.32,5.32,0,0,0-4.81,3.1c-.33.7-.41,1.19-.44,1.18s0-.12,0-.34a4.16,4.16,0,0,1,.28-.9,5.19,5.19,0,0,1,4.94-3.19,3.9,3.9,0,0,1,.93.12A1,1,0,0,1,381.68,462Z" style="fill:#263238"></path><path d="M380.62,454.78a28.4,28.4,0,0,1-.2,3.5,28.81,28.81,0,0,1-.41,3.49,34.1,34.1,0,0,1,.2-3.5A29.16,29.16,0,0,1,380.62,454.78Z" style="fill:#263238"></path><path d="M373.16,464.46a10,10,0,0,1-2.51,0,9.85,9.85,0,0,1-2.46-.44c0-.06,1.11.12,2.48.24S373.16,464.4,373.16,464.46Z" style="fill:#263238"></path><path d="M376.49,464.78c0,.05-.11.23-.25.47s-.23.47-.28.46-.07-.28.1-.56S376.46,464.74,376.49,464.78Z" style="fill:#263238"></path><path d="M377.9,463.35s-.09.21-.28.37-.38.25-.42.21.09-.21.28-.37S377.86,463.3,377.9,463.35Z" style="fill:#263238"></path><path d="M379.77,462.81c0,.06-.24,0-.5.1s-.45.18-.5.13.13-.26.45-.33S379.79,462.76,379.77,462.81Z" style="fill:#263238"></path><path d="M381.08,462.6c0,.06-.09.14-.24.18s-.27,0-.29,0,.09-.13.24-.17S381.07,462.55,381.08,462.6Z" style="fill:#263238"></path><path d="M306.22,158.94a101.48,101.48,0,0,1-6.79-8.62c-2.44-3.84-2.1-4.07-1.61-4.29,1.32-.59,4.55,6.58,4.74,4.62s-5-8.3-3.56-8.86c1.83-.73,5.07,6.85,5.39,7.47s1.22.15.9-.39c-.46-.78-5.08-9.11-3.3-9.85,1-.41,1.52,1.47,1.52,1.47s3.76,8.12,4.59,7.75-1.2-5.23-2-6.82-.38-2.6.6-2.39c.66.14,3.24,4.93,4,6.51s2.77,6,3.51,3,2.43-5.06,3.25-5.3,1.44.85.85,1.61a11.92,11.92,0,0,0-1.31,2.84,7.77,7.77,0,0,0-.41,2.48c0,.72,0,1.37.06,2l.29,6.16-7.05,4.83Z" style="fill:#ffbe9d"></path><path d="M389.15,347.84l-7.31,111.75-17-1.88s3.05-109,3.85-109S389.15,347.84,389.15,347.84Z" style="fill:#ffbe9d"></path><polygon points="426.03 344.63 445.11 455.42 430.03 457.71 403.62 349.9 426.03 344.63" style="fill:#ffbe9d"></polygon><path d="M401.37,154.43l.47,41.6a8.39,8.39,0,0,1-8,8.49h0a8.4,8.4,0,0,1-8.79-8l-.52-10.61s-7.55,1.23-9.06-4.2c-1-3.48,0-28.34,0-28.34Z" style="fill:#ffbe9d"></path><polygon points="418.65 280.77 436.72 370.48 405.6 373.47 397.04 310.85 393.69 374.63 362.91 371.98 368.07 276.57 418.65 280.77" style="fill:#263238"></polygon><polygon points="445.45 452.8 446.54 466.23 429.16 465.71 429.59 453.52 445.45 452.8" style="fill:#455a64"></polygon><path d="M437.47,452.57a26.36,26.36,0,0,0,.07,5.26,25.93,25.93,0,0,0,.59,5.23,26.72,26.72,0,0,0-.06-5.26A25.48,25.48,0,0,0,437.47,452.57Z" style="fill:#263238"></path><path d="M429.16,463.58a14.87,14.87,0,0,0,2.57-.07l6.19-.38c2.42-.16,4.61-.35,6.19-.54a11.42,11.42,0,0,0,2.54-.44,12.71,12.71,0,0,0-2.57.07l-6.19.38c-2.42.16-4.61.35-6.19.54A11.42,11.42,0,0,0,429.16,463.58Z" style="fill:#263238"></path><path d="M417.64,247.33v22.13l2.42,18.38L367.29,283l2.26-36.75c.35-8.6.51-17.56.72-25.49-3.59-1.36-37-14-39.27-14.33s-24.28-40.77-24.28-40.77c-.69-4.85,12.46-8,12.46-8s20.42,30.8,22.15,32.53S375,197.52,375,197.52a141.56,141.56,0,0,1,25.1-2.79,20.16,20.16,0,0,1,20.4,18.49C421.18,220.89,420.75,231.88,417.64,247.33Z" style="fill:#9C76DF"></path><path d="M346.59,148.7a3.91,3.91,0,0,0-2.68,2.29,10.33,10.33,0,0,0-6.78-2.22,5.59,5.59,0,0,0,2.27,3.48c1.12.88,2.4,1.53,3.52,2.4a5.71,5.71,0,0,1,2.34,3.43" style="fill:#ffbe9d"></path><path d="M372.45,147.81c-2,.21-3.22,2.68-2.75,4.67s2.06,3.51,3.71,4.71a5.12,5.12,0,0,0,6.71,5.66,1.62,1.62,0,0,0,.07,2.38,3.09,3.09,0,0,0,2.56.59c.9-.13,1.76-.46,2.65-.62a5,5,0,0,1,5.27,2.28c.94,1.82-.12,4.52-2.15,4.78a7.76,7.76,0,0,0-1.36.15,2.06,2.06,0,0,0-.82,3,3.9,3.9,0,0,0,3.05,1.57,4.07,4.07,0,0,0,6.34,5.1,5.22,5.22,0,1,0,9.44-4.28,6.44,6.44,0,0,0,1.55-10.8,16.93,16.93,0,0,0,3.28-3.38,5.59,5.59,0,0,0,.91-4.5,3.43,3.43,0,0,0-3.52-2.54,3.83,3.83,0,0,0-3.07-6.06,6.17,6.17,0,0,0-11.71-2.12c-.15-1.85-2.25-3.1-4.07-2.8a5.94,5.94,0,0,0-4.08,3.46,4.08,4.08,0,1,0-8.07-1.15,1.58,1.58,0,1,0-2.84.19" style="fill:#263238"></path><path d="M386.16,170.41c0-.08.29,0,.65-.2a1.23,1.23,0,0,0,.18-2.28c-.33-.21-.6-.21-.61-.29s.29-.21.77,0a1.54,1.54,0,0,1-.23,3C386.41,170.66,386.13,170.46,386.16,170.41Z" style="fill:#eb996e"></path><path d="M381.61,165.35l.21,6a1.56,1.56,0,0,0,.15.74.93.93,0,0,0,1.15.3,1.57,1.57,0,0,0,.81-1,5.51,5.51,0,0,0,.2-1.28,24.73,24.73,0,0,1,1.26-6.08,3,3,0,0,0-3.7,1.61" style="fill:#263238"></path><path d="M384.48,225.92c-.05.13-4.44-1.37-9.81-3.36s-9.69-3.71-9.64-3.84a99.81,99.81,0,0,1,9.82,3.35A101.09,101.09,0,0,1,384.48,225.92Z" style="fill:#263238"></path><path d="M386.15,201.21a4,4,0,0,1,1,.46,12.62,12.62,0,0,1,2.52,1.85,13.73,13.73,0,0,1,2.79,3.71,13.15,13.15,0,0,1,1.44,5.5,14,14,0,0,1-.94,5.6,12.75,12.75,0,0,1-2.44,4,5.33,5.33,0,0,1-2.65,1.66,2.87,2.87,0,0,1-.85.08q-.3,0-.3-.06a8.28,8.28,0,0,0,1.1-.21,5.5,5.5,0,0,0,2.43-1.72,13,13,0,0,0,2.26-3.88,14,14,0,0,0,.87-5.41,13.12,13.12,0,0,0-1.35-5.3,14.18,14.18,0,0,0-2.62-3.66A22.41,22.41,0,0,0,386.15,201.21Z" style="fill:#263238"></path><path d="M385.44,201.55a10.31,10.31,0,0,1-1.72-.35l-4.63-1.13-15.26-3.84-15.29-3.78-4.63-1.15a12.63,12.63,0,0,1-1.68-.48,10.58,10.58,0,0,1,1.73.29c1.1.21,2.7.55,4.67,1,3.93.86,9.36,2.13,15.32,3.62s11.35,2.92,15.23,4l4.6,1.3A12.69,12.69,0,0,1,385.44,201.55Z" style="fill:#263238"></path><path d="M378.68,282.31a2.55,2.55,0,0,1-.05-.56c0-.42,0-.94,0-1.58,0-1.38,0-3.37,0-5.83.05-4.92.21-11.72.54-19.22s.76-14.29,1.13-19.19c.19-2.46.35-4.44.49-5.81.06-.64.12-1.16.16-1.57A4.24,4.24,0,0,1,381,228a1.8,1.8,0,0,1,0,.55c0,.42,0,.95-.07,1.59-.08,1.44-.19,3.41-.32,5.81-.28,4.91-.65,11.7-1,19.2s-.55,14.28-.7,19.2c-.07,2.4-.13,4.37-.18,5.82,0,.64-.05,1.16-.07,1.58A2.05,2.05,0,0,1,378.68,282.31Z" style="fill:#263238"></path><path d="M392.68,195.15a32,32,0,0,0-5,2.25,31.59,31.59,0,0,0-4.23,3.5,12.44,12.44,0,0,1,9.24-5.75Z" style="fill:#263238"></path><path d="M403.31,195a30.3,30.3,0,0,1-3.72.26c-2.29.12-5.45.32-8.93.68s-6.62.81-8.89,1.16a32.65,32.65,0,0,1-3.69.52,3.76,3.76,0,0,1,1-.3c.63-.16,1.54-.36,2.67-.58,2.25-.45,5.4-.95,8.89-1.32s6.68-.51,9-.53c1.15,0,2.08,0,2.73,0A4.55,4.55,0,0,1,403.31,195Z" style="fill:#263238"></path><path d="M413.49,305.7c0,.14-5.81,1.4-13,2.83s-13.11,2.46-13.14,2.32,5.81-1.41,13-2.83S413.46,305.55,413.49,305.7Z" style="fill:#455a64"></path><path d="M366,372c-.14,0,1.62-19.71,3.94-44s4.31-43.94,4.45-43.93-1.61,19.7-3.93,44S366.14,372,366,372Z" style="fill:#455a64"></path><path d="M368.94,372.37c-.15,0,1.44-19.94,3.53-44.51s3.92-44.48,4.06-44.47-1.44,19.94-3.54,44.51S369.08,372.38,368.94,372.37Z" style="fill:#455a64"></path></g><g id="freepik--Icons--inject-17"><path d="M216.54,429.16a13.71,13.71,0,1,0-10,.06c-21.06,3.14-20,24.9-20,24.9l49.85-.09S237.46,432,216.54,429.16Z" style="fill:#9C76DF"></path><path d="M174.16,163.79,173,165.31c-8.25,11.14.27,20.69,2.18,22.59l25.46-25.55a22.3,22.3,0,0,0-6.6-4.41c-5.55-2.35-10.91-1.61-15.93,2.2l-1.5,1.13.73-1.72a9.82,9.82,0,0,0-15.92-10.83,9.53,9.53,0,0,0-2.79,6.88,9.84,9.84,0,0,0,13.77,9Z" style="fill:#9C76DF"></path><path d="M283,99.54a6.54,6.54,0,1,0,1.58,4.49c4.69,9,14.35,5.15,14.35,5.15l-7.79-22.5S281,89.65,283,99.54Z" style="fill:#455a64"></path><rect x="236.49" y="137.72" width="28.41" height="28.41" rx="3.34" transform="translate(236.9 -140.89) rotate(56.09)" style="fill:#9C76DF"></rect><rect x="153.46" y="92" width="16.01" height="16.01" rx="3.34" transform="translate(71.64 -67.33) rotate(30)" style="fill:#9C76DF"></rect><path d="M223.65,124.07c-1.24-3.34-3.6-9.48-4.13-9.74-.73-.35-7.27,1.92-7.27,1.92s.05,1.4-1.33-3.7-4.4-3.84-4.4-3.84l1.33,3.79-2.31,7.32-2,.69,4.19,11.94,3.44-1.2s8.76-1.65,10.39-2.22a3.52,3.52,0,0,0,.67-.34A3.88,3.88,0,0,0,223.65,124.07Z" style="fill:#263238"></path><polygon points="197.49 121.47 203.28 134.06 206.69 132.86 202.21 120.11 197.49 121.47" style="fill:#263238"></polygon><path d="M114.67,115l-2.87-4.13.43-1.31-7.87-2.61-.75,2.27s-2.65,5.21-3,6.28a2,2,0,0,0-.09.49,2.53,2.53,0,0,0,1.83,2.58c2.23.69,6.36,1.93,6.71,1.75s1.92-4.54,1.92-4.54-.75-.53,2.45.79,3.75-.74,3.75-.74Z" style="fill:#455a64"></path><polygon points="114.17 106.01 105.31 103.97 104.57 106.22 112.98 109.01 114.17 106.01" style="fill:#455a64"></polygon><path d="M208.11,49.05A3.87,3.87,0,0,0,207,48.4a2.8,2.8,0,0,0-3.21,1.15,6.73,6.73,0,0,0-.6,2.6c-.14,1-.29,2.06-.45,3.22s-.34,2.39-.53,3.69a3,3,0,0,1-1.05,1.84,4.58,4.58,0,0,1-.95.55l-1,.49-4.13,2-2.18,1.1a2.55,2.55,0,0,0-1.33,1.84,2.62,2.62,0,0,0,.67,2.24,3.33,3.33,0,0,0,1,.7l1.22.6L199.63,73c.44.23.86.39,1.33.68a3.17,3.17,0,0,1,1,1.2,4.56,4.56,0,0,1,.37,1.53c.07.49.14,1,.22,1.49l.89,6.15a2.57,2.57,0,0,0,1.72,2.16,2.54,2.54,0,0,0,2.71-.66l4.63-4.74,1.17-1.19a3.18,3.18,0,0,1,1.53-.92,4,4,0,0,1,1.75,0l1.61.28,6.34,1.1a2.54,2.54,0,0,0,2.47-1.1,2.58,2.58,0,0,0,.16-2.66L224.81,71c-.44-.88-.91-1.67-1.32-2.59a3.09,3.09,0,0,1-.14-1.5,4.11,4.11,0,0,1,.53-1.36c.87-1.62,1.7-3.2,2.51-4.72s2-3,1.4-4.45a2.7,2.7,0,0,0-1.45-1.55,2.88,2.88,0,0,0-1-.21,10.48,10.48,0,0,0-1.07.14l-7.82,1.29a3,3,0,0,1-1.72-.3,4.42,4.42,0,0,1-1.21-1l-1.89-2L209,50l-.66-.72a1.72,1.72,0,0,1-.22-.26,1.72,1.72,0,0,1,.26.22c.17.18.41.41.7.69l2.67,2.68,1.92,1.94a4,4,0,0,0,1.16,1,2.57,2.57,0,0,0,1.55.26l7.8-1.36a7.72,7.72,0,0,1,1.13-.15,3.26,3.26,0,0,1,1.19.22A3,3,0,0,1,228,58.82l-1.18,2.25-2.48,4.73a2.82,2.82,0,0,0-.36,2.49c.37.8.87,1.67,1.3,2.52L228,76.09a3.09,3.09,0,0,1-.18,3.18,3,3,0,0,1-3,1.31l-6.36-1.09-1.61-.27a3.07,3.07,0,0,0-1.53,0,2.58,2.58,0,0,0-1.29.77l-1.17,1.2-4.63,4.74a3.08,3.08,0,0,1-3.25.78A3.13,3.13,0,0,1,203,84.1c-.29-2.09-.59-4.14-.88-6.15q-.1-.77-.21-1.5a4.11,4.11,0,0,0-.32-1.38,2.58,2.58,0,0,0-.87-1c-.36-.24-.86-.44-1.27-.66l-5.08-2.53-1.22-.61a3.64,3.64,0,0,1-1.17-.8,3,3,0,0,1-.77-2.62,3,3,0,0,1,1.55-2.13l2.2-1.09,4.14-2a13.47,13.47,0,0,0,1.86-1,2.66,2.66,0,0,0,1-1.61c.19-1.3.38-2.53.56-3.69s.34-2.22.49-3.21a7.19,7.19,0,0,1,.67-2.67,2.94,2.94,0,0,1,1.81-1.24,2.8,2.8,0,0,1,1.61.1,2.68,2.68,0,0,1,.85.51A2.22,2.22,0,0,1,208.11,49.05Z" style="fill:#263238"></path><path d="M118,142.3l2.82,2.9a1.37,1.37,0,0,0,1.2.39l4-.68a1.35,1.35,0,0,1,1.42,2l-1.89,3.58a1.37,1.37,0,0,0,0,1.26l1.88,3.58a1.36,1.36,0,0,1-1.43,2l-4-.69a1.35,1.35,0,0,0-1.2.39L118,159.85a1.36,1.36,0,0,1-2.31-.76l-.58-4a1.35,1.35,0,0,0-.74-1l-3.62-1.79a1.36,1.36,0,0,1,0-2.43l3.63-1.79a1.32,1.32,0,0,0,.74-1l.59-4A1.35,1.35,0,0,1,118,142.3Z" style="fill:#263238"></path><path d="M232.67,183.3l.62,4a1.34,1.34,0,0,0,.76,1l3.64,1.75a1.35,1.35,0,0,1,0,2.42l-3.61,1.84a1.33,1.33,0,0,0-.72,1l-.54,4a1.36,1.36,0,0,1-2.3.78l-2.86-2.87a1.36,1.36,0,0,0-1.2-.37l-4,.73a1.36,1.36,0,0,1-1.45-2l1.84-3.6a1.34,1.34,0,0,0,0-1.26L221,187.25a1.35,1.35,0,0,1,1.4-2l4,.64a1.36,1.36,0,0,0,1.19-.4l2.79-2.93A1.36,1.36,0,0,1,232.67,183.3Z" style="fill:#455a64"></path></g></svg>