<?xml version="1.0" encoding="utf-8"?>
<!-- Generator: Adobe Illustrator 23.0.4, SVG Export Plug-In . SVG Version: 6.00 Build 0)  -->
<svg version="1.1" id="Layer_1" xmlns="http://www.w3.org/2000/svg" xmlns:xlink="http://www.w3.org/1999/xlink" x="0px" y="0px"
	 viewBox="0 0 81.7 35" style="enable-background:new 0 0 81.7 35;" xml:space="preserve">
<style type="text/css">
	.st0{fill:url(#SVGID_1_);}
</style>
<title>Asset 2</title>
<g>
	<g id="Layer_1-2">
		
			<linearGradient id="SVGID_1_" gradientUnits="userSpaceOnUse" x1="0" y1="20.02" x2="81.7182" y2="20.02" gradientTransform="matrix(1 0 0 -1 0 37.52)">
			<stop  offset="0" style="stop-color:#90CEA1"/>
			<stop  offset="0.56" style="stop-color:#3CBEC9"/>
			<stop  offset="1" style="stop-color:#00B3E5"/>
		</linearGradient>
		<path class="st0" d="M45.4,15.5h28.7c4.2,0,7.6-3.4,7.6-7.6l0,0c0-4.2-3.4-7.6-7.6-7.6H45.4c-4.2,0-7.6,3.4-7.6,7.6c0,0,0,0,0,0
			l0,0C37.8,12.1,41.2,15.5,45.4,15.5z M7.6,34.8h33c4.2,0,7.6-3.4,7.6-7.6l0,0c0-4.2-3.4-7.6-7.6-7.6h-33C3.4,19.6,0,23,0,27.2
			c0,0,0,0,0,0l0,0C0,31.4,3.4,34.8,7.6,34.8z M4.5,15.2h3.4V3h4.3V0h-12v3h4.3V15.2z M16.5,15.2h3.4V3.5h0l3.9,11.7h2.6l4-11.7h0
			v11.7h3.4V0h-5.1l-3.5,9.9h0L21.6,0h-5.1L16.5,15.2z M65.5,23.9c-0.4-0.9-1.1-1.7-1.9-2.4c-0.9-0.6-1.8-1.1-2.9-1.3
			c-1.1-0.3-2.3-0.4-3.5-0.4h-5V35h5.5c1.1,0,2.2-0.2,3.2-0.5c1-0.3,1.9-0.8,2.7-1.4c0.8-0.6,1.4-1.4,1.9-2.4c0.5-1,0.7-2.1,0.7-3.3
			C66.2,26.2,66,25,65.5,23.9z M62.3,29.5c-0.3,0.6-0.6,1.1-1.1,1.5c-0.5,0.4-1.1,0.6-1.7,0.8c-0.7,0.2-1.4,0.2-2.1,0.2h-1.7v-9h2
			c0.7,0,1.4,0.1,2,0.3c0.6,0.2,1.2,0.4,1.7,0.8c0.5,0.4,0.8,0.8,1.1,1.3c0.3,0.6,0.4,1.3,0.4,1.9C62.7,28,62.6,28.8,62.3,29.5z
			 M81.5,29.4c-0.2-0.4-0.4-0.8-0.7-1.1c-0.3-0.3-0.6-0.6-1-0.8c-0.4-0.2-0.9-0.4-1.4-0.4v0c0.7-0.2,1.4-0.6,1.9-1.2
			c0.5-0.6,0.8-1.4,0.7-2.1c0-0.7-0.1-1.4-0.5-2c-0.3-0.5-0.8-0.9-1.3-1.2c-0.6-0.3-1.2-0.5-1.8-0.6c-0.7-0.1-1.3-0.1-2-0.1h-5.7V35
			H76c0.7,0,1.4-0.1,2-0.2c0.6-0.1,1.3-0.4,1.8-0.7c0.5-0.3,1-0.8,1.3-1.3c0.4-0.6,0.5-1.3,0.5-2C81.7,30.3,81.6,29.8,81.5,29.4
			L81.5,29.4z M73.1,22.6h2.3c0.3,0,0.5,0,0.8,0.1c0.3,0,0.5,0.1,0.7,0.2c0.2,0.1,0.4,0.3,0.5,0.5c0.1,0.2,0.2,0.5,0.2,0.8
			c0,0.3-0.1,0.5-0.2,0.8c-0.1,0.2-0.3,0.4-0.5,0.5c-0.2,0.1-0.4,0.2-0.7,0.3c-0.2,0.1-0.5,0.1-0.8,0.1h-2.4L73.1,22.6z M78.1,31.2
			c-0.1,0.2-0.3,0.4-0.5,0.6c-0.2,0.1-0.5,0.2-0.7,0.3c-0.3,0.1-0.5,0.1-0.8,0.1h-3v-3.4h2.5c0.3,0,0.6,0,0.9,0.1
			c0.3,0,0.6,0.1,0.9,0.2c0.3,0.1,0.5,0.3,0.7,0.5c0.2,0.2,0.3,0.6,0.3,0.9C78.3,30.7,78.3,31,78.1,31.2L78.1,31.2z"/>
	</g>
</g>
</svg>
